<?xml version="1.0" encoding="UTF-8" standalone="no"?>
<!-- Created with Inkscape (http://www.inkscape.org/) -->

<svg
   width="48"
   height="48"
   viewBox="0 0 12.7 12.7"
   version="1.1"
   id="svg1"
   inkscape:version="1.3.2 (091e20e, 2023-11-25, custom)"
   sodipodi:docname="search.svg"
   xmlns:inkscape="http://www.inkscape.org/namespaces/inkscape"
   xmlns:sodipodi="http://sodipodi.sourceforge.net/DTD/sodipodi-0.dtd"
   xmlns="http://www.w3.org/2000/svg"
   xmlns:svg="http://www.w3.org/2000/svg">
  <sodipodi:namedview
     id="namedview1"
     pagecolor="#ffffff"
     bordercolor="#000000"
     borderopacity="0.25"
     inkscape:showpageshadow="2"
     inkscape:pageopacity="0.0"
     inkscape:pagecheckerboard="0"
     inkscape:deskcolor="#d1d1d1"
     inkscape:document-units="mm"
     inkscape:zoom="16.549473"
     inkscape:cx="11.813065"
     inkscape:cy="28.369483"
     inkscape:window-width="3440"
     inkscape:window-height="1377"
     inkscape:window-x="-8"
     inkscape:window-y="-8"
     inkscape:window-maximized="1"
     inkscape:current-layer="layer1" />
  <defs
     id="defs1">
    <inkscape:path-effect
       effect="fillet_chamfer"
       id="path-effect5"
       is_visible="true"
       lpeversion="1"
       nodesatellites_param="F,0,1,1,0,0.45358677,0,1 @ F,0,0,1,0,0.45358677,0,1 @ F,0,1,1,0,0.45358677,0,1 @ F,0,1,1,0,0.45358677,0,1"
       radius="0"
       unit="px"
       method="auto"
       mode="F"
       chamfer_steps="1"
       flexible="false"
       use_knot_distance="true"
       apply_no_radius="true"
       apply_with_radius="true"
       only_selected="false"
       hide_knots="false" />
  </defs>
  <g
     inkscape:label="Layer 1"
     inkscape:groupmode="layer"
     id="layer1">
    <path
       id="path4"
       style="fill:#cccccc;stroke-width:0.270001"
       d="M 6.3315677,12.421344 A 6.0110269,6.0104722 0 0 1 0.32009112,6.4108443 6.0110269,6.0104722 0 0 1 6.3315677,0.40034433 6.0110269,6.0104722 0 0 1 12.341091,6.4108443 6.0110269,6.0104722 0 0 1 6.3315677,12.421344 Z" />
    <path
       id="rect4"
       style="fill:#554400;stroke-width:0.238984"
       d="M 2.8049877,2.7090805 H 7.6447323 A 0.45358677,0.45358677 45 0 1 8.0983191,3.1626673 V 10.308593 A 0.45358677,0.45358677 135 0 1 7.6447323,10.76218 H 2.8049877 A 0.45358677,0.45358677 45 0 1 2.3514009,10.308593 V 3.1626673 A 0.45358677,0.45358677 135 0 1 2.8049877,2.7090805 Z"
       inkscape:path-effect="#path-effect5"
       inkscape:original-d="M 2.3514009,2.7090805 H 8.0983191 V 10.76218 H 2.3514009 Z"
       transform="rotate(-14.426971,5.1424442,6.0779129)" />
    <ellipse
       style="fill:none;stroke-width:0.264583"
       id="path2"
       cx="9.2087526"
       cy="4.7322755"
       rx="1.3429431"
       ry="1.263006" />
    <g
       id="g5"
       transform="rotate(-38.020869,7.1307468,9.5988333)">
      <circle
         style="fill:#000000;stroke-width:0.26999"
         id="path1"
         cx="9.0647659"
         cy="4.7961249"
         r="2.414" />
      <circle
         style="fill:#cccccc;stroke-width:0.377728"
         id="path3"
         cx="9.0647631"
         cy="4.8121099"
         r="1.7745" />
      <rect
         style="fill:#000000;stroke-width:0.264583"
         id="rect5"
         width="1.0072073"
         height="3.9808669"
         x="6.794138"
         y="9.5334406"
         transform="rotate(-18.171951)" />
    </g>
  </g>
</svg>
